<svg width="24" height="23" viewBox="0 0 24 23" fill="none" xmlns="http://www.w3.org/2000/svg">
<g id="Add order">
<path id="shape" d="M5.75 2.5C4.50736 2.5 3.5 3.50736 3.5 4.75V7.75C3.5 8.99264 4.50736 10 5.75 10H18.25C19.4926 10 20.5 8.99264 20.5 7.75V4.75C20.5 3.50736 19.4926 2.5 18.25 2.5H5.75ZM5 4.75C5 4.33579 5.33579 4 5.75 4H18.25C18.6642 4 19 4.33579 19 4.75V7.75C19 8.16421 18.6642 8.5 18.25 8.5H5.75C5.33579 8.5 5 8.16421 5 7.75V4.75ZM6 12.75C6 12.3358 6.33579 12 6.75 12H18.25C19.4927 12 20.5 13.0074 20.5 14.25V17.25C20.5 18.4926 19.4927 19.5 18.25 19.5H10.75C10.3358 19.5 10 19.1642 10 18.75C10 18.3358 10.3358 18 10.75 18H18.25C18.6643 18 19 17.6642 19 17.25V14.25C19 13.8358 18.6643 13.5 18.25 13.5H6.75C6.33579 13.5 6 13.1642 6 12.75ZM5 15.25C5 14.8358 4.66421 14.5 4.25 14.5C3.83579 14.5 3.5 14.8358 3.5 15.25L3.5 18H0.75C0.335786 18 0 18.3358 0 18.75C0 19.1642 0.335786 19.5 0.75 19.5H3.49999L3.49999 22.25C3.49999 22.6642 3.83578 23 4.24999 23C4.6642 23 4.99999 22.6642 4.99999 22.25L4.99999 19.5H7.75C8.16421 19.5 8.5 19.1642 8.5 18.75C8.5 18.3358 8.16421 18 7.75 18H5L5 15.25Z" fill="black"/>
</g>
</svg>
