<svg width="24" height="24" viewBox="0 0 24 24" fill="none" xmlns="http://www.w3.org/2000/svg">
<g id="24/owner">
<g id="shape">
<path d="M22 12C22 12.9503 21.8675 13.8696 21.6198 14.7405C21.1933 14.4776 20.7242 14.2769 20.2254 14.1513C20.4046 13.4642 20.5 12.7432 20.5 12C20.5 7.30558 16.6944 3.5 12 3.5C7.30558 3.5 3.5 7.30558 3.5 12C3.5 14.0748 4.24343 15.976 5.4784 17.4517C6.43611 18.5961 7.68935 19.4847 9.12087 20C10.02 20.3236 10.9894 20.5 12 20.5C12.7432 20.5 13.4642 20.4046 14.1513 20.2254C14.2769 20.7242 14.4776 21.1933 14.7405 21.6198C13.8696 21.8675 12.9503 22 12 22C6.47715 22 2 17.5228 2 12C2 6.47715 6.47715 2 12 2C17.5228 2 22 6.47715 22 12Z" fill="#000000"/>
<path d="M12.0001 13C13.7239 13 15.3021 13.6231 16.5219 14.6563C15.0948 15.4722 14.1085 16.9711 14.0084 18.7076C13.3723 18.8978 12.6981 19 12.0001 19C9.62135 19 7.51973 17.8135 6.25478 16C7.51973 14.1865 9.62135 13 12.0001 13Z" fill="#000000"/>
<path d="M12.0001 5C10.3432 5 9.00009 6.34315 9.00009 8C9.00009 9.65685 10.3432 11 12.0001 11C13.6569 11 15.0001 9.65685 15.0001 8C15.0001 6.34315 13.6569 5 12.0001 5Z" fill="#000000"/>
<path d="M19.1794 15.0115C19.106 14.8628 18.894 14.8628 18.8207 15.0115L17.7412 17.1988C17.712 17.2578 17.6557 17.2987 17.5906 17.3082L15.1768 17.6589C15.0127 17.6828 14.9472 17.8844 15.0659 18.0001L16.8126 19.7026C16.8597 19.7486 16.8812 19.8148 16.8701 19.8797L16.4578 22.2837C16.4297 22.4471 16.6012 22.5717 16.748 22.4946L18.9069 21.3595C18.9652 21.3289 19.0348 21.3289 19.0931 21.3595L21.2521 22.4946C21.3988 22.5717 21.5703 22.4471 21.5422 22.2837L21.1299 19.8797C21.1188 19.8148 21.1403 19.7486 21.1874 19.7026L22.9341 18.0001C23.0528 17.8844 22.9873 17.6828 22.8232 17.6589L20.4094 17.3082C20.3443 17.2987 20.288 17.2578 20.2588 17.1988L19.1794 15.0115Z" fill="#000000"/>
</g>
</g>
</svg>
