<svg width="24" height="20" viewBox="0 0 24 20" fill="none" xmlns="http://www.w3.org/2000/svg">
<g id="profile ">
<path id="shape" d="M9.50024 5C9.50024 3.61929 10.6195 2.5 12.0002 2.5C13.381 2.5 14.5002 3.61929 14.5002 5C14.5002 6.38071 13.381 7.5 12.0002 7.5C10.6195 7.5 9.50024 6.38071 9.50024 5ZM12.0002 1C9.79111 1 8.00024 2.79086 8.00024 5C8.00024 7.20914 9.79111 9 12.0002 9C14.2094 9 16.0002 7.20914 16.0002 5C16.0002 2.79086 14.2094 1 12.0002 1ZM5.30951 17.3512C5.74847 14.0485 8.57737 11.5 12.0003 11.5C15.4232 11.5 18.2521 14.0485 18.691 17.3512C18.6952 17.3824 18.6882 17.4085 18.6606 17.4373C18.6287 17.4705 18.5725 17.5 18.5003 17.5H5.50028C5.42802 17.5 5.37186 17.4705 5.33998 17.4373C5.31233 17.4085 5.30536 17.3824 5.30951 17.3512ZM12.0003 10C7.81538 10 4.35931 13.1153 3.82258 17.1536C3.68119 18.2174 4.56468 19 5.50028 19H18.5003C19.4359 19 20.3194 18.2174 20.178 17.1536C19.6412 13.1153 16.1852 10 12.0003 10Z" fill="black"/>
</g>
</svg>
