<svg width="35" height="33" viewBox="0 0 35 33" fill="none" xmlns="http://www.w3.org/2000/svg">
<g id="Star 6" filter="url(#filter0_d_132_276)">
<path d="M17.5 5L21.8349 11.5335L29.3882 13.6373L24.514 19.779L24.8473 27.6127L17.5 24.875L10.1527 27.6127L10.486 19.779L5.61179 13.6373L13.1651 11.5335L17.5 5Z" fill="white"/>
<path d="M17.7083 4.86178L17.5 4.54781L17.2917 4.86178L13.0083 11.3177L5.54472 13.3965L5.18174 13.4976L5.41597 13.7927L10.2322 19.8614L9.90291 27.6021L9.88689 27.9785L10.24 27.847L17.5 25.1418L24.76 27.847L25.1131 27.9785L25.0971 27.6021L24.7678 19.8614L29.584 13.7927L29.8183 13.4976L29.4553 13.3965L21.9917 11.3177L17.7083 4.86178Z" stroke="#9E42F0" stroke-width="0.5"/>
</g>
<defs>
<filter id="filter0_d_132_276" x="0.751953" y="0.0955811" width="33.4961" height="32.2488" filterUnits="userSpaceOnUse" color-interpolation-filters="sRGB">
<feFlood flood-opacity="0" result="BackgroundImageFix"/>
<feColorMatrix in="SourceAlpha" type="matrix" values="0 0 0 0 0 0 0 0 0 0 0 0 0 0 0 0 0 0 127 0" result="hardAlpha"/>
<feOffset/>
<feGaussianBlur stdDeviation="2"/>
<feComposite in2="hardAlpha" operator="out"/>
<feColorMatrix type="matrix" values="0 0 0 0 0 0 0 0 0 0 0 0 0 0 0 0 0 0 0.25 0"/>
<feBlend mode="normal" in2="BackgroundImageFix" result="effect1_dropShadow_132_276"/>
<feBlend mode="normal" in="SourceGraphic" in2="effect1_dropShadow_132_276" result="shape"/>
</filter>
</defs>
</svg>
