<svg width="24" height="24" viewBox="0 0 24 24" fill="none" xmlns="http://www.w3.org/2000/svg">
<g id="Catagories">
<path id="shape" d="M3 2C2.44772 2 2 2.44772 2 3V6.71429C2 7.26657 2.44772 7.71429 3 7.71429H6.70215C7.25444 7.71429 7.70215 7.26657 7.70215 6.71428V3C7.70215 2.44772 7.25444 2 6.70215 2H3ZM2 10.1431C2 9.59078 2.44772 9.14307 3 9.14307H6.70215C7.25444 9.14307 7.70215 9.59078 7.70215 10.1431V13.8574C7.70215 14.4096 7.25444 14.8574 6.70215 14.8574H3C2.44772 14.8574 2 14.4096 2 13.8574V10.1431ZM2 17.2856C2 16.7334 2.44772 16.2856 3 16.2856H6.70215C7.25444 16.2856 7.70215 16.7334 7.70215 17.2856V20.9999C7.70215 21.5522 7.25444 21.9999 6.70215 21.9999H3C2.44772 21.9999 2 21.5522 2 20.9999V17.2856ZM9.14893 17.2856C9.14893 16.7334 9.59664 16.2856 10.1489 16.2856H13.8511C14.4034 16.2856 14.8511 16.7334 14.8511 17.2856V20.9999C14.8511 21.5522 14.4034 21.9999 13.8511 21.9999H10.1489C9.59664 21.9999 9.14893 21.5522 9.14893 20.9999V17.2856ZM10.1489 9.14307C9.59664 9.14307 9.14893 9.59078 9.14893 10.1431V13.8574C9.14893 14.4096 9.59664 14.8574 10.1489 14.8574H13.8511C14.4034 14.8574 14.8511 14.4096 14.8511 13.8574V10.1431C14.8511 9.59078 14.4034 9.14307 13.8511 9.14307H10.1489ZM9.14893 3C9.14893 2.44772 9.59664 2 10.1489 2H13.8511C14.4034 2 14.8511 2.44772 14.8511 3V6.71428C14.8511 7.26657 14.4034 7.71429 13.8511 7.71429H10.1489C9.59664 7.71429 9.14893 7.26657 9.14893 6.71429V3ZM17.2979 16.2856C16.7456 16.2856 16.2979 16.7334 16.2979 17.2856V20.9999C16.2979 21.5522 16.7456 21.9999 17.2979 21.9999H21C21.5523 21.9999 22 21.5522 22 20.9999V17.2856C22 16.7334 21.5523 16.2856 21 16.2856H17.2979ZM16.2979 10.1431C16.2979 9.59078 16.7456 9.14307 17.2979 9.14307H21C21.5523 9.14307 22 9.59078 22 10.1431V13.8574C22 14.4096 21.5523 14.8574 21 14.8574H17.2979C16.7456 14.8574 16.2979 14.4096 16.2979 13.8574V10.1431ZM17.2979 2C16.7456 2 16.2979 2.44772 16.2979 3V6.71429C16.2979 7.26657 16.7456 7.71429 17.2979 7.71429H21C21.5523 7.71429 22 7.26657 22 6.71428V3C22 2.44772 21.5523 2 21 2H17.2979Z" fill="black"/>
</g>
</svg>
