<svg width="24" height="20" viewBox="0 0 24 20" fill="none" xmlns="http://www.w3.org/2000/svg">
<g id="Messagges">
<g id="shape">
<path d="M7.40039 9C7.40039 9.55229 6.95268 10 6.40039 10C5.84811 10 5.40039 9.55229 5.40039 9C5.40039 8.44772 5.84811 8 6.40039 8C6.95268 8 7.40039 8.44772 7.40039 9Z" fill="black"/>
<path d="M10.9004 9C10.9004 9.55229 10.4527 10 9.90039 10C9.34811 10 8.90039 9.55229 8.90039 9C8.90039 8.44772 9.34811 8 9.90039 8C10.4527 8 10.9004 8.44772 10.9004 9Z" fill="black"/>
<path d="M13.4004 10C13.9527 10 14.4004 9.55229 14.4004 9C14.4004 8.44772 13.9527 8 13.4004 8C12.8481 8 12.4004 8.44772 12.4004 9C12.4004 9.55229 12.8481 10 13.4004 10Z" fill="black"/>
<path d="M10 17C10.5959 17 11.1766 16.9348 11.7354 16.8113C12.7875 18.1432 14.4185 19 16.25 19C17.1599 19 18.0222 18.7881 18.7884 18.4106L20.9044 18.9369C21.5327 19.0932 22.098 18.5177 21.9307 17.8923L21.3827 15.8443C21.7776 15.0642 22 14.1822 22 13.25C22 10.6478 20.272 8.45071 17.9015 7.74091C17.2976 3.92083 13.9899 1 10 1C5.58172 1 2 4.58172 2 9C2 10.4479 2.38462 11.8059 3.05727 12.9775C3.06576 12.9922 3.07026 13.009 3.07026 13.026V15.9712C3.07026 16.7018 3.84775 17.17 4.49357 16.8282L6.04535 16.0069C6.07447 15.9915 6.10939 15.992 6.13822 16.0079C7.28316 16.6402 8.59956 17 10 17ZM10 15.5455C8.85168 15.5455 7.77651 15.251 6.84138 14.7346C6.38742 14.4839 5.83227 14.474 5.36493 14.7213L4.5248 15.166V13.026C4.5248 12.7526 4.45257 12.4864 4.31869 12.2532C3.76922 11.2962 3.45455 10.187 3.45455 9C3.45455 5.38504 6.38504 2.45455 10 2.45455C13.615 2.45455 16.5455 5.38504 16.5455 9C16.5455 12.615 13.615 15.5455 10 15.5455ZM16.25 17.5C15.0977 17.5 14.0523 17.0418 13.2861 16.2961C15.9588 15.0904 17.8503 12.4594 17.9915 9.37181C19.4704 10.037 20.5 11.5239 20.5 13.25C20.5 14.0148 20.2987 14.7303 19.9466 15.3488C19.8394 15.5372 19.8081 15.7629 19.8656 15.9775L20.1967 17.2152L18.9058 16.8941C18.6989 16.8426 18.483 16.8729 18.3008 16.9735C17.6935 17.3089 16.9952 17.5 16.25 17.5Z" fill="black"/>
</g>
</g>
</svg>
