<svg width="24" height="24" viewBox="0 0 24 24" fill="none" xmlns="http://www.w3.org/2000/svg">
<g id="24/cogs">
<path id="shape" d="M5.19222 6.91007L7.41129 7.34504L7.95382 6.91279C8.45502 6.51347 9.01574 6.18719 9.61988 5.94928L10.2647 5.69534L10.9967 3.5585C11.3254 3.5199 11.6604 3.5 12.0005 3.5C12.3406 3.5 12.6755 3.5199 13.0042 3.55849L13.7362 5.69542L14.381 5.94937C14.9851 6.18728 15.5458 6.51354 16.0469 6.91283L16.5894 7.34508L18.8088 6.91006C19.2091 7.44444 19.5476 8.02701 19.8141 8.64715L18.3279 10.3513L18.4295 11.0358C18.4761 11.3496 18.5003 11.6715 18.5003 12C18.5003 12.3285 18.4761 12.6504 18.4295 12.9642L18.3279 13.6487L19.8141 15.3528C19.5476 15.973 19.2091 16.5556 18.8088 17.0899L16.5894 16.6549L16.0469 17.0872C15.5458 17.4865 14.9851 17.8127 14.381 18.0506L13.7363 18.3046L13.0042 20.4415C12.6755 20.4801 12.3406 20.5 12.0005 20.5C11.6604 20.5 11.3254 20.4801 10.9967 20.4415L10.2647 18.3047L9.61988 18.0507C9.01574 17.8128 8.45502 17.4865 7.95382 17.0872L7.4113 16.655L5.19222 17.0899C4.79194 16.5555 4.45343 15.9729 4.1869 15.3528L5.67279 13.6489L5.57118 12.9644C5.52459 12.6505 5.50034 12.3285 5.50034 12C5.50034 11.6715 5.52459 11.3495 5.57118 11.0356L5.67279 10.3511L4.1869 8.64721C4.45343 8.02705 4.79194 7.44447 5.19222 6.91007ZM7.01912 5.73962L5.15929 5.37507C4.81633 5.30785 4.46018 5.42217 4.23961 5.69326C3.57609 6.50878 3.03853 7.4309 2.65659 8.42995C2.53177 8.75646 2.61086 9.12218 2.8406 9.38563L4.08744 10.8154C4.03006 11.2019 4.00034 11.5975 4.00034 12C4.00034 12.4025 4.03006 12.7981 4.08744 13.1846L2.8406 14.6144C2.61086 14.8778 2.53177 15.2435 2.65659 15.57C3.03853 16.5691 3.57609 17.4912 4.23961 18.3067C4.46018 18.5778 4.81633 18.6922 5.15929 18.6249L7.01912 18.2604C7.63523 18.7513 8.32544 19.1531 9.07026 19.4464L9.68418 21.2385C9.7976 21.5696 10.0753 21.8211 10.4209 21.876C10.9354 21.9576 11.463 22 12.0005 22C12.538 22 13.0655 21.9576 13.58 21.876C13.9256 21.8211 14.2033 21.5696 14.3167 21.2385L14.9307 19.4463C15.6754 19.153 16.3656 18.7512 16.9816 18.2603L18.8417 18.6249C19.1847 18.6922 19.5408 18.5778 19.7614 18.3068C20.4249 17.4912 20.9625 16.5692 21.3444 15.5701C21.4692 15.2436 21.3901 14.8779 21.1604 14.6144L19.9133 13.1843C19.9706 12.7979 20.0003 12.4024 20.0003 12C20.0003 11.5976 19.9706 11.2021 19.9133 10.8157L21.1604 9.38556C21.3901 9.12211 21.4692 8.75639 21.3444 8.42988C20.9625 7.43085 20.4249 6.50875 19.7614 5.69325C19.5408 5.42216 19.1847 5.30784 18.8417 5.37506L16.9816 5.73966C16.3656 5.24883 15.6754 4.84702 14.9307 4.55371L14.3167 2.76147C14.2033 2.43039 13.9256 2.17888 13.58 2.12403C13.0655 2.0424 12.538 2 12.0005 2C11.463 2 10.9354 2.0424 10.4209 2.12405C10.0753 2.1789 9.7976 2.4304 9.68418 2.76149L9.07026 4.5536C8.32544 4.84691 7.63523 5.24875 7.01912 5.73962ZM9.25037 12C9.25037 10.4812 10.4816 9.25 12.0004 9.25C13.5191 9.25 14.7504 10.4812 14.7504 12C14.7504 13.5188 13.5191 14.75 12.0004 14.75C10.4816 14.75 9.25037 13.5188 9.25037 12ZM12.0004 7.75C9.65316 7.75 7.75037 9.65279 7.75037 12C7.75037 14.3472 9.65316 16.25 12.0004 16.25C14.3476 16.25 16.2504 14.3472 16.2504 12C16.2504 9.65279 14.3476 7.75 12.0004 7.75Z" fill="#000000"/>
</g>
</svg>
